<?xml version="1.0" standalone="no"?>
<!DOCTYPE svg PUBLIC "-//W3C//DTD SVG 20010904//EN"
 "http://www.w3.org/TR/2001/REC-SVG-20010904/DTD/svg10.dtd">
<svg version="1.0" xmlns="http://www.w3.org/2000/svg"
 width="600.000000pt" height="600.000000pt" viewBox="0 0 600.000000 600.000000"
 preserveAspectRatio="xMidYMid meet">
<metadata>
Created by potrace 1.11, written by Peter Selinger 2001-2013
</metadata>
<g transform="translate(0.000000,600.000000) scale(0.100000,-0.100000)"
fill="#000000" stroke="none">
<path d="M5838 5615 c-2 -2 -30 -6 -63 -9 -33 -3 -76 -8 -95 -11 -19 -3 -57
-7 -85 -10 -27 -3 -63 -8 -80 -10 -16 -3 -68 -9 -115 -15 -99 -12 -150 -18
-205 -25 -50 -7 -95 -12 -165 -20 -30 -4 -66 -8 -80 -10 -26 -4 -99 -13 -165
-20 -22 -3 -56 -7 -75 -10 -71 -9 -216 -27 -255 -31 -22 -2 -58 -6 -80 -10
-71 -10 -76 -11 -240 -30 -27 -3 -61 -7 -75 -9 -14 -2 -65 -9 -115 -15 -49 -6
-106 -13 -125 -15 -95 -12 -611 -76 -650 -81 -25 -2 -76 -9 -115 -14 -69 -9
-103 -14 -200 -25 -27 -3 -84 -10 -125 -15 -41 -5 -97 -12 -125 -15 -27 -3
-61 -8 -75 -10 -14 -3 -50 -7 -80 -10 -30 -3 -86 -10 -125 -15 -38 -6 -92 -12
-120 -15 -27 -3 -59 -7 -70 -9 -11 -2 -47 -7 -80 -10 -33 -3 -76 -8 -95 -11
-68 -9 -116 -15 -160 -20 -46 -5 -97 -12 -161 -21 -46 -6 -114 -14 -159 -19
-19 -2 -53 -6 -75 -9 -48 -6 -182 -23 -250 -31 -27 -3 -66 -7 -85 -10 -19 -2
-53 -7 -75 -10 -22 -3 -56 -7 -75 -10 -19 -2 -57 -7 -85 -10 -46 -5 -160 -19
-245 -30 -48 -6 -94 -12 -165 -20 -204 -24 -416 -52 -419 -56 -3 -2 4 -74 14
-159 11 -85 22 -177 26 -205 3 -27 9 -79 14 -115 6 -36 10 -219 10 -407 0
-275 3 -343 13 -343 11 0 13 -292 14 -1592 0 -1144 3 -1601 11 -1620 6 -16 26
-37 44 -48 33 -20 52 -20 2881 -20 2628 0 2851 1 2877 16 64 38 60 -77 60
1673 0 1276 3 1590 13 1594 10 4 12 71 12 305 0 165 -4 304 -8 308 -5 5 -1197
9 -2650 9 l-2642 0 0 38 c-1 31 3 37 20 38 11 0 29 2 40 3 11 2 47 6 80 10 33
4 71 9 85 11 14 2 48 7 75 10 28 3 61 7 75 10 14 2 50 7 80 10 30 3 71 7 90
10 33 4 97 12 165 21 64 8 131 16 150 19 19 3 70 9 175 20 89 10 204 25 240
30 14 3 48 7 75 10 28 3 66 7 85 10 55 7 113 14 245 30 22 3 74 10 115 15 41
5 99 12 129 15 30 4 61 8 70 10 9 1 48 6 86 10 39 4 77 9 86 10 9 2 40 6 70 9
54 7 88 11 165 21 23 3 60 8 84 10 24 2 59 7 79 9 86 12 126 17 251 31 43 5
67 9 150 20 49 7 445 54 505 61 28 3 57 7 65 9 8 2 61 9 117 15 56 6 110 12
120 14 10 2 49 7 86 11 37 3 76 8 86 10 10 2 42 6 72 10 30 3 65 8 79 10 14 2
50 7 80 10 30 3 65 7 77 9 12 3 50 7 85 10 35 4 72 8 83 10 11 2 45 6 75 10
30 4 71 9 90 11 19 3 58 7 85 10 28 3 57 8 65 10 8 2 49 7 90 10 41 3 82 8 90
10 8 2 42 7 75 11 33 3 69 8 80 9 11 2 47 6 79 10 33 4 67 9 75 10 9 2 22 4
29 4 8 1 10 10 7 24 -2 12 -7 45 -10 72 -3 28 -7 64 -10 80 -3 17 -7 48 -9 70
-3 22 -12 101 -21 175 -9 74 -17 146 -19 160 -2 18 -9 25 -24 26 -12 1 -23 0
-24 -1z"/>
</g>
</svg>
