<?xml version="1.0" standalone="no"?>
<!DOCTYPE svg PUBLIC "-//W3C//DTD SVG 20010904//EN"
 "http://www.w3.org/TR/2001/REC-SVG-20010904/DTD/svg10.dtd">
<svg version="1.0" xmlns="http://www.w3.org/2000/svg"
 width="626.000000pt" height="626.000000pt" viewBox="0 0 626.000000 626.000000"
 preserveAspectRatio="xMidYMid meet">
<metadata>
Created by potrace 1.11, written by Peter Selinger 2001-2013
</metadata>
<g transform="translate(0.000000,626.000000) scale(0.100000,-0.100000)"
fill="#000000" stroke="none">
<path d="M3691 5387 c-19 -20 -40 -37 -48 -37 -7 0 -13 -8 -13 -17 0 -10 -3
-28 -6 -39 -5 -17 0 -22 22 -27 35 -6 54 1 48 18 -3 7 0 16 6 20 6 3 10 3 9
-2 -4 -24 3 -43 16 -43 8 0 15 -4 15 -10 0 -13 27 -13 35 0 4 6 1 18 -7 27 -7
8 -20 45 -28 82 l-15 66 -34 -38z m36 -99 c-3 -8 -6 -5 -6 6 -1 11 2 17 5 13
3 -3 4 -12 1 -19z"/>
<path d="M2806 5374 c-4 -14 -20 -46 -36 -72 -16 -26 -26 -50 -22 -53 4 -4 30
-9 59 -12 38 -4 55 -2 63 9 7 8 19 14 27 14 8 0 13 3 11 8 -33 67 -49 79 -62
46 -5 -13 -9 -14 -21 -4 -17 14 -20 30 -4 30 5 0 7 -5 3 -11 -4 -7 -1 -10 7
-7 16 5 19 59 4 70 -17 13 -23 9 -29 -18z"/>
<path d="M1954 5322 c1 -44 7 -63 24 -80 12 -12 24 -22 27 -22 7 0 38 34 51
56 6 10 21 20 33 22 31 5 29 42 -3 42 -13 0 -39 6 -57 14 -81 33 -78 34 -75
-32z m101 -10 c-3 -3 -11 0 -18 7 -9 10 -8 11 6 5 10 -3 15 -9 12 -12z m-5
-24 c0 -13 -23 -5 -28 10 -2 7 2 10 12 6 9 -3 16 -11 16 -16z"/>
<path d="M2965 5260 c-3 -5 -1 -10 4 -10 6 0 11 5 11 10 0 6 -2 10 -4 10 -3 0
-8 -4 -11 -10z"/>
<path d="M3556 5245 c-3 -8 -1 -15 4 -15 6 0 10 7 10 15 0 8 -2 15 -4 15 -2 0
-6 -7 -10 -15z"/>
<path d="M1987 5154 c6 -15 23 -19 23 -5 0 5 -7 11 -14 14 -10 4 -13 1 -9 -9z"/>
<path d="M3695 4840 c-3 -5 3 -10 15 -10 12 0 18 5 15 10 -3 6 -10 10 -15 10
-5 0 -12 -4 -15 -10z"/>
<path d="M3278 4803 c7 -3 16 -2 19 1 4 3 -2 6 -13 5 -11 0 -14 -3 -6 -6z"/>
<path d="M3754 4720 c5 -49 4 -69 -5 -72 -9 -3 -9 -9 1 -27 l12 -24 22 26 c11
14 45 36 73 48 57 25 73 46 45 56 -9 3 -29 18 -43 33 -20 21 -35 27 -68 27
l-43 0 6 -67z m56 -22 c0 -5 -4 -7 -9 -3 -5 3 -12 1 -15 -4 -4 -5 1 -11 10
-13 15 -3 15 -5 -2 -18 -10 -8 -16 -10 -12 -6 4 5 3 15 -3 22 -15 18 -4 45 16
38 8 -3 15 -10 15 -16z"/>
<path d="M3353 4763 c-30 -4 -32 -7 -29 -36 3 -27 8 -32 30 -32 31 1 36 -25 9
-46 -15 -11 -16 -11 -5 1 16 18 15 27 -1 27 -18 0 -37 -51 -26 -68 6 -11 13
-9 31 7 13 12 45 34 72 49 l49 28 -29 21 c-16 11 -35 29 -43 38 -9 10 -18 17
-21 16 -3 0 -20 -3 -37 -5z"/>
<path d="M4185 4711 c-3 -10 -21 -33 -41 -50 -19 -18 -34 -36 -32 -41 10 -25
80 -90 91 -83 7 4 19 8 27 8 18 0 16 60 -2 82 -6 7 -8 28 -5 47 7 46 -25 78
-38 37z m25 -83 c0 -5 -10 -7 -22 -7 -18 1 -19 2 -5 6 9 2 15 8 12 13 -3 5
-13 6 -23 3 -15 -6 -15 -5 -3 10 13 16 14 16 27 0 7 -10 14 -21 14 -25z"/>
<path d="M2400 4673 c0 -11 -18 -44 -41 -74 l-40 -54 43 -8 c24 -5 48 -13 54
-18 8 -6 17 -4 27 6 9 8 23 15 32 15 10 0 15 6 13 18 -2 9 -9 16 -16 15 -6 -2
-9 4 -5 13 3 8 -2 20 -11 27 -9 7 -18 26 -19 42 -3 34 -37 50 -37 18z m40 -70
c0 -16 -17 -17 -34 -1 -10 9 -10 17 -3 30 10 15 12 15 24 0 7 -9 13 -23 13
-29z"/>
<path d="M2415 4610 c3 -5 8 -10 11 -10 2 0 4 5 4 10 0 6 -5 10 -11 10 -5 0
-7 -4 -4 -10z"/>
<path d="M2940 4591 c0 -11 5 -23 10 -26 7 -4 7 -13 0 -26 -9 -16 -6 -21 17
-32 15 -6 35 -20 43 -31 15 -17 17 -17 43 17 l27 35 -38 15 c-21 9 -49 27 -63
41 -29 31 -39 33 -39 7z"/>
<path d="M4650 4581 c0 -5 -24 -17 -52 -27 -29 -9 -58 -21 -64 -25 -6 -5 -15
-5 -19 -1 -5 4 -4 0 0 -8 5 -8 22 -26 37 -40 15 -13 28 -30 28 -36 0 -7 17
-11 40 -11 43 0 45 4 40 80 -1 16 4 29 13 33 18 7 10 44 -9 44 -8 0 -14 -4
-14 -9z m-7 -48 c-7 -2 -19 -2 -25 0 -7 3 -2 5 12 5 14 0 19 -2 13 -5z m7 -23
c0 -5 -6 -10 -14 -10 -8 0 -18 5 -21 10 -3 6 3 10 14 10 12 0 21 -4 21 -10z"/>
<path d="M2540 4535 c-10 -12 -10 -15 4 -15 9 0 16 7 16 15 0 8 -2 15 -4 15
-2 0 -9 -7 -16 -15z"/>
<path d="M4295 4510 c-19 -8 -19 -9 3 -9 12 -1 22 4 22 9 0 6 -1 10 -2 9 -2 0
-12 -4 -23 -9z"/>
<path d="M2017 4472 c-3 -15 -22 -48 -41 -72 -42 -52 -46 -78 -13 -78 23 0 41
-4 70 -17 11 -5 24 -2 36 9 10 9 25 16 34 16 28 0 15 39 -26 83 -11 11 -17 28
-15 42 3 14 -2 26 -14 34 -24 15 -25 15 -31 -17z m18 -52 c-3 -5 -11 -10 -16
-10 -6 0 -7 5 -4 10 3 6 11 10 16 10 6 0 7 -4 4 -10z m14 -30 c-7 -5 -18 -6
-24 -2 -6 4 -3 8 8 10 9 2 17 9 18 15 0 7 3 7 6 -2 3 -7 -1 -17 -8 -21z"/>
<path d="M3010 4391 c0 -16 25 -30 39 -22 11 7 9 11 -7 20 -25 13 -32 14 -32
2z"/>
<path d="M4368 4362 c-53 -56 -59 -100 -12 -82 14 5 25 24 34 54 7 26 11 49 8
51 -2 3 -16 -8 -30 -23z"/>
<path d="M4678 4373 c7 -3 16 -2 19 1 4 3 -2 6 -13 5 -11 0 -14 -3 -6 -6z"/>
<path d="M2174 4315 c-16 -12 -17 -14 -3 -15 9 0 19 7 23 15 7 19 5 19 -20 0z"/>
<path d="M4583 4301 c-30 -25 -29 -31 5 -31 36 0 56 18 41 37 -15 17 -19 16
-46 -6z"/>
<path d="M1705 4290 c-4 -14 -14 -33 -23 -42 -13 -16 -12 -18 12 -27 14 -6 26
-16 26 -22 0 -6 7 -8 16 -5 19 7 54 -20 54 -41 0 -24 35 -10 38 16 2 14 0 21
-6 17 -32 -19 -78 32 -104 114 -3 10 -7 7 -13 -10z"/>
<path d="M1595 4231 c-3 -5 -1 -12 4 -15 5 -3 11 1 15 9 6 16 -9 21 -19 6z"/>
<path d="M4734 4193 c-16 -21 -37 -45 -48 -55 -17 -13 -18 -19 -7 -32 7 -8 10
-19 7 -24 -7 -11 2 57 -221 -1827 -90 -770 -167 -1413 -170 -1430 -4 -23 -16
-36 -56 -58 -28 -16 -53 -26 -55 -24 -2 2 72 727 166 1611 93 883 170 1632
170 1664 0 61 -17 112 -37 112 -7 0 -15 12 -19 28 -10 45 -13 52 -24 52 -6 0
-13 -8 -16 -17 -3 -10 -14 -36 -25 -57 -18 -36 -18 -40 -3 -57 15 -16 15 -21
-2 -58 -10 -23 -22 -41 -27 -41 -5 0 -7 -10 -4 -22 4 -12 -5 -139 -18 -282
-111 -1186 -275 -2969 -275 -2983 0 -12 -21 -30 -60 -51 -33 -19 -60 -31 -60
-27 0 3 25 315 55 693 30 378 86 1088 124 1577 39 490 76 928 83 975 7 47 13
90 13 95 0 6 6 16 13 23 12 13 17 42 7 42 -3 0 -15 -9 -27 -20 -12 -11 -30
-20 -40 -20 -11 0 -18 7 -18 20 0 50 -54 -1 -87 -82 -24 -57 -28 -107 -179
-2463 -30 -478 -57 -880 -60 -892 -3 -14 -24 -32 -61 -52 -31 -17 -57 -30 -58
-28 -2 2 14 326 70 1392 8 165 33 653 55 1085 22 432 42 800 45 818 4 19 2 32
-5 32 -5 0 -10 8 -10 18 0 22 -37 82 -51 82 -6 0 -23 -13 -39 -28 -62 -63 -57
12 -125 -1801 l-62 -1663 -24 -19 c-36 -29 -3 -15 131 54 245 126 508 276 643
365 59 39 67 48 67 76 0 17 16 153 35 301 20 149 112 855 206 1570 125 955
169 1318 166 1367 -7 104 -36 125 -83 61z m-284 -47 c0 -2 -7 -7 -16 -10 -8
-3 -12 -2 -9 4 6 10 25 14 25 6z"/>
<path d="M1890 4205 c0 -8 4 -15 9 -15 5 0 11 7 15 15 3 9 0 15 -9 15 -8 0
-15 -7 -15 -15z"/>
<path d="M2565 4160 c3 -5 11 -10 16 -10 6 0 7 5 4 10 -3 6 -11 10 -16 10 -6
0 -7 -4 -4 -10z"/>
<path d="M2760 4150 c0 -5 5 -10 10 -10 6 0 10 5 10 10 0 6 -4 10 -10 10 -5 0
-10 -4 -10 -10z"/>
<path d="M3867 4146 c-10 -8 -40 -17 -67 -21 -58 -8 -67 -23 -34 -58 13 -14
24 -33 24 -40 0 -10 14 -17 38 -19 20 -3 38 -5 39 -4 0 1 5 19 9 40 6 33 4 38
-9 33 -22 -8 -46 21 -26 34 18 11 29 11 29 0 0 -5 -8 -12 -17 -14 -17 -4 -17
-5 0 -6 23 -1 60 37 53 55 -7 17 -16 17 -39 0z"/>
<path d="M3475 4130 c-4 -6 3 -10 14 -10 25 0 27 6 6 13 -8 4 -17 2 -20 -3z"/>
<path d="M2575 4078 c-4 -13 -8 -34 -9 -47 -1 -13 -10 -29 -19 -36 -9 -7 -17
-20 -17 -30 0 -14 5 -16 23 -10 12 4 49 10 82 14 33 3 60 11 59 16 -3 23 -17
55 -25 55 -5 0 -9 9 -9 20 0 13 -7 20 -19 20 -11 0 -23 5 -26 10 -11 18 -32
11 -40 -12z"/>
<path d="M3597 4078 c-10 -5 -30 -7 -43 -4 -24 6 -25 5 -22 -36 3 -36 6 -43
25 -43 11 0 25 -4 30 -8 4 -5 2 -7 -6 -5 -7 2 -15 -2 -18 -9 -3 -7 4 -10 19
-7 21 5 22 5 4 -7 -16 -10 -22 -9 -33 7 -12 17 -13 17 -13 -2 0 -11 -5 -25
-10 -30 -12 -12 -3 -44 12 -44 6 0 18 11 29 23 10 13 46 36 80 52 l62 28 -34
27 c-18 16 -37 26 -41 24 -5 -3 -8 4 -8 15 0 26 -11 32 -33 19z"/>
<path d="M2750 4051 c0 -15 49 -68 50 -54 0 25 -20 63 -35 63 -8 0 -15 -4 -15
-9z"/>
<path d="M1471 4031 c-23 -23 -41 -81 -41 -134 0 -20 137 -720 304 -1555 167
-834 308 -1545 313 -1580 9 -58 8 -64 -13 -90 -25 -28 -22 -38 11 -44 11 -2
27 -19 36 -38 13 -28 22 -34 41 -32 14 2 37 -7 53 -20 16 -12 26 -17 21 -10
-6 9 -1 11 16 7 12 -2 70 -16 128 -29 218 -52 385 -84 595 -116 236 -37 531
-62 513 -45 -3 3 -36 11 -74 18 l-69 12 -7 75 c-4 41 -14 777 -23 1635 -9 871
-21 1579 -26 1603 -11 50 -34 109 -51 129 -8 10 -14 10 -24 2 -7 -6 -18 -8
-23 -5 -5 4 -22 -6 -37 -21 l-27 -27 -21 27 c-12 15 -25 27 -29 27 -4 0 -26
-14 -50 -31 -36 -26 -38 -30 -15 -24 l27 7 -5 -69 c-5 -55 49 -1538 96 -2673
5 -129 12 -322 16 -429 l7 -194 -30 6 c-17 3 -53 9 -82 13 -41 5 -52 11 -56
28 -3 19 -71 1009 -175 2576 -46 695 -50 734 -87 802 -71 130 -167 131 -215 3
-14 -38 -9 -104 83 -1080 54 -572 124 -1318 155 -1657 32 -339 56 -620 52
-623 -7 -7 -139 15 -151 25 -7 7 -41 270 -202 1585 -31 253 -90 735 -131 1070
-42 336 -75 629 -75 653 0 30 -4 42 -14 42 -8 0 -15 5 -15 10 0 18 -20 11 -20
-7 -1 -23 -84 -88 -112 -88 -13 0 -27 9 -33 21 -10 20 -11 20 -50 2 -22 -9
-35 -18 -29 -18 7 0 15 -11 18 -25 3 -13 69 -451 146 -972 77 -521 183 -1238
236 -1592 52 -354 93 -646 90 -648 -2 -3 -38 1 -80 8 l-75 13 -11 50 c-5 28
-26 142 -45 253 -49 285 -99 569 -135 773 -17 96 -112 636 -211 1199 -197
1127 -193 1107 -279 1185 -45 41 -80 46 -109 17z"/>
<path d="M3165 3990 c-8 -13 4 -32 16 -24 5 3 8 2 7 -3 -4 -16 25 -118 36
-125 6 -4 22 5 36 20 14 16 34 31 44 35 17 7 17 9 2 30 -9 12 -19 29 -22 38
-3 10 -18 15 -41 15 -20 0 -38 5 -41 12 -5 15 -28 16 -37 2z m52 -52 c-3 -8
-6 -5 -6 6 -1 11 2 17 5 13 3 -3 4 -12 1 -19z m33 13 c0 -6 -4 -12 -8 -15 -5
-3 -9 1 -9 9 0 8 4 15 9 15 4 0 8 -4 8 -9z"/>
<path d="M2791 3965 c1 -19 18 -51 18 -35 0 8 -4 22 -9 30 -5 8 -9 11 -9 5z"/>
<path d="M3870 3955 c0 -10 29 -24 34 -17 3 6 -3 12 -14 15 -11 3 -20 4 -20 2z"/>
<path d="M3510 3770 c0 -5 5 -10 10 -10 6 0 10 5 10 10 0 6 -4 10 -10 10 -5 0
-10 -4 -10 -10z"/>
<path d="M3546 3771 c-4 -7 -5 -15 -2 -18 9 -9 19 4 14 18 -4 11 -6 11 -12 0z"/>
<path d="M1180 851 c0 -21 -14 -71 -30 -111 -17 -41 -27 -77 -22 -82 4 -4 32
-4 62 1 30 5 62 5 71 1 18 -10 32 -2 48 28 6 12 18 22 26 22 8 0 15 7 15 16 0
18 -53 74 -70 74 -18 0 -50 43 -44 61 3 11 -3 19 -18 23 -36 9 -38 8 -38 -33z
m55 -33 c4 4 0 -5 -10 -20 -9 -16 -19 -28 -20 -28 -2 0 -3 16 -2 35 2 28 4 32
13 20 6 -8 15 -11 19 -7z m23 -40 c-2 -11 -11 -22 -20 -24 -21 -3 -22 0 -6 26
17 26 30 25 26 -2z"/>
<path d="M1424 719 c-19 -22 -19 -22 6 -14 32 10 36 13 24 25 -7 7 -17 3 -30
-11z"/>
</g>
</svg>
